<svg width="1200" height="520" viewBox="0 0 1200 520" fill="none" xmlns="http://www.w3.org/2000/svg">
  <rect width="1200" height="520" rx="48" fill="#0B1422"/>
  <path d="M0 363C79 363 79 251 158 251C237 251 237 421 316 421C395 421 395 128 474 128C553 128 553 332 632 332C711 332 711 170 790 170C869 170 869 274 948 274C1027 274 1027 114 1106 114C1145.5 114 1165 151 1200 151" stroke="#39E6C0" stroke-width="10" stroke-linecap="round"/>
  <path d="M0 247C72 247 72 176 144 176C216 176 216 287 288 287C360 287 360 207 432 207C504 207 504 356 576 356C648 356 648 91 720 91C792 91 792 226 864 226C936 226 936 314 1008 314C1080 314 1080 198 1152 198C1176 198 1188 211 1200 211" stroke="#45A5FF" stroke-width="10" stroke-linecap="round" opacity="0.8"/>
  <circle cx="474" cy="128" r="18" fill="#F7B941"/>
  <circle cx="720" cy="91" r="18" fill="#FF6B57"/>
  <circle cx="948" cy="274" r="18" fill="#39E6C0"/>
</svg>
